<mxfile host="65bd71144e">
    <diagram id="ZCTtF_h3V9Il2F3Twpqr" name="Page-1">
        <mxGraphModel dx="850" dy="1290" grid="1" gridSize="10" guides="1" tooltips="1" connect="1" arrows="1" fold="1" page="1" pageScale="1" pageWidth="850" pageHeight="1100" math="0" shadow="0">
            <root>
                <mxCell id="0"/>
                <mxCell id="1" parent="0"/>
                <mxCell id="5" value="&lt;font style=&quot;font-size: 23px&quot;&gt;User Space&lt;br&gt;&lt;/font&gt;" style="rounded=1;whiteSpace=wrap;html=1;verticalAlign=top;arcSize=2;fillColor=#fa6800;strokeColor=#C73500;" vertex="1" parent="1">
                    <mxGeometry x="10" y="10" width="490" height="280" as="geometry"/>
                </mxCell>
                <mxCell id="22" value="&lt;font style=&quot;font-size: 23px&quot;&gt;Process&lt;br&gt;&lt;/font&gt;" style="rounded=1;whiteSpace=wrap;html=1;verticalAlign=top;arcSize=5;fillColor=#1ba1e2;strokeColor=#006EAF;fontColor=#ffffff;" vertex="1" parent="1">
                    <mxGeometry x="30" y="50" width="130" height="190" as="geometry"/>
                </mxCell>
                <mxCell id="4" value="&lt;font style=&quot;font-size: 23px&quot;&gt;Kernel Space&lt;br&gt;&lt;/font&gt;" style="rounded=1;whiteSpace=wrap;html=1;verticalAlign=bottom;arcSize=5;fillColor=#a20025;strokeColor=#6F0000;fontColor=#ffffff;" vertex="1" parent="1">
                    <mxGeometry x="10" y="290" width="490" height="100" as="geometry"/>
                </mxCell>
                <mxCell id="37" style="edgeStyle=orthogonalEdgeStyle;rounded=0;orthogonalLoop=1;jettySize=auto;html=1;exitX=0.25;exitY=0;exitDx=0;exitDy=0;entryX=0.5;entryY=1;entryDx=0;entryDy=0;endArrow=open;endFill=0;endSize=24;" edge="1" parent="1" source="6" target="22">
                    <mxGeometry relative="1" as="geometry"/>
                </mxCell>
                <mxCell id="38" style="edgeStyle=orthogonalEdgeStyle;rounded=0;orthogonalLoop=1;jettySize=auto;html=1;exitX=0.5;exitY=0;exitDx=0;exitDy=0;entryX=0.5;entryY=1;entryDx=0;entryDy=0;endArrow=open;endFill=0;endSize=24;" edge="1" parent="1" source="6" target="26">
                    <mxGeometry relative="1" as="geometry"/>
                </mxCell>
                <mxCell id="39" style="edgeStyle=orthogonalEdgeStyle;rounded=0;orthogonalLoop=1;jettySize=auto;html=1;exitX=0.75;exitY=0;exitDx=0;exitDy=0;entryX=0.5;entryY=1;entryDx=0;entryDy=0;endArrow=open;endFill=0;endSize=24;" edge="1" parent="1" source="6" target="30">
                    <mxGeometry relative="1" as="geometry"/>
                </mxCell>
                <mxCell id="6" value="&lt;font style=&quot;font-size: 23px&quot;&gt;Process Table&lt;br&gt;&lt;/font&gt;" style="rounded=1;whiteSpace=wrap;html=1;verticalAlign=middle;arcSize=5;fillColor=#0050ef;strokeColor=#001DBC;fontColor=#ffffff;shadow=1;" vertex="1" parent="1">
                    <mxGeometry x="135" y="300" width="240" height="50" as="geometry"/>
                </mxCell>
                <mxCell id="2" value="&lt;font style=&quot;font-size: 23px&quot;&gt;Thread&lt;br&gt;&lt;/font&gt;" style="rounded=1;whiteSpace=wrap;html=1;verticalAlign=top;arcSize=5;fillColor=#f0a30a;strokeColor=#BD7000;fontColor=#FFFFFF;" vertex="1" parent="1">
                    <mxGeometry x="37.5" y="140" width="110" height="40" as="geometry"/>
                </mxCell>
                <mxCell id="10" value="&lt;font style=&quot;font-size: 23px&quot;&gt;Thread&lt;br&gt;&lt;/font&gt;" style="rounded=1;whiteSpace=wrap;html=1;verticalAlign=top;arcSize=5;fillColor=#f0a30a;strokeColor=#BD7000;fontColor=#FFFFFF;" vertex="1" parent="1">
                    <mxGeometry x="37.5" y="190" width="110" height="40" as="geometry"/>
                </mxCell>
                <mxCell id="11" value="&lt;font style=&quot;font-size: 23px&quot;&gt;Thread&lt;br&gt;&lt;/font&gt;" style="rounded=1;whiteSpace=wrap;html=1;verticalAlign=top;arcSize=5;fillColor=#f0a30a;strokeColor=#BD7000;fontColor=#FFFFFF;" vertex="1" parent="1">
                    <mxGeometry x="37.5" y="90" width="110" height="40" as="geometry"/>
                </mxCell>
                <mxCell id="26" value="&lt;font style=&quot;font-size: 23px&quot;&gt;Process&lt;br&gt;&lt;/font&gt;" style="rounded=1;whiteSpace=wrap;html=1;verticalAlign=top;arcSize=5;fillColor=#1ba1e2;strokeColor=#006EAF;fontColor=#ffffff;" vertex="1" parent="1">
                    <mxGeometry x="190" y="50" width="130" height="190" as="geometry"/>
                </mxCell>
                <mxCell id="28" value="&lt;font style=&quot;font-size: 23px&quot;&gt;Thread&lt;br&gt;&lt;/font&gt;" style="rounded=1;whiteSpace=wrap;html=1;verticalAlign=top;arcSize=5;fillColor=#f0a30a;strokeColor=#BD7000;fontColor=#FFFFFF;" vertex="1" parent="1">
                    <mxGeometry x="197.5" y="190" width="110" height="40" as="geometry"/>
                </mxCell>
                <mxCell id="30" value="&lt;font style=&quot;font-size: 23px&quot;&gt;Process&lt;br&gt;&lt;/font&gt;" style="rounded=1;whiteSpace=wrap;html=1;verticalAlign=top;arcSize=5;fillColor=#1ba1e2;strokeColor=#006EAF;fontColor=#ffffff;" vertex="1" parent="1">
                    <mxGeometry x="350" y="50" width="130" height="190" as="geometry"/>
                </mxCell>
                <mxCell id="31" value="&lt;font style=&quot;font-size: 23px&quot;&gt;Thread&lt;br&gt;&lt;/font&gt;" style="rounded=1;whiteSpace=wrap;html=1;verticalAlign=top;arcSize=5;fillColor=#f0a30a;strokeColor=#BD7000;fontColor=#FFFFFF;" vertex="1" parent="1">
                    <mxGeometry x="357.5" y="140" width="110" height="40" as="geometry"/>
                </mxCell>
                <mxCell id="32" value="&lt;font style=&quot;font-size: 23px&quot;&gt;Thread&lt;br&gt;&lt;/font&gt;" style="rounded=1;whiteSpace=wrap;html=1;verticalAlign=top;arcSize=5;fillColor=#f0a30a;strokeColor=#BD7000;fontColor=#FFFFFF;" vertex="1" parent="1">
                    <mxGeometry x="357.5" y="190" width="110" height="40" as="geometry"/>
                </mxCell>
            </root>
        </mxGraphModel>
    </diagram>
</mxfile>